<?xml version="1.0" encoding="UTF-8"?>
<svg id="_x30_4_-_cyber_security" xmlns="http://www.w3.org/2000/svg" version="1.1" viewBox="0 0 250 183.33152">
  <!-- Generator: Adobe Illustrator 29.3.1, SVG Export Plug-In . SVG Version: 2.1.0 Build 151)  -->
  <defs>
    <style>
      .st0 {
        fill: #4435c1;
      }

      .st1 {
        fill: #38c2ce;
      }

      .st2 {
        fill: #469be0;
      }

      .st3 {
        fill: #76e4c8;
      }
    </style>
  </defs>
  <path id="path-04" class="st3" d="M206.26987,30.70843c-.28022.28056-.76864.28033-1.04863,0-.25811-.25823-.25241-.58905-.16099-.81261.11469-.28056.36176-.44993.65791-.45272h.05188c.29906.00279.54612.17215.66082.45272.09143.22357.09713.55438-.16099.81261ZM206.77307,70.72166c-.17948,0-.32546.1461-.32546.32546s.14598.32523.32546.32523.32546-.14587.32546-.32523-.14598-.32546-.32546-.32546ZM208.94093,70.72166c-.17937,0-.32535.1461-.32535.32546s.14598.32523.32535.32523c.17948,0,.32546-.14587.32546-.32523s-.14598-.32546-.32546-.32546ZM202.43735,70.72166c-.17948,0-.32546.1461-.32546.32546s.14598.32523.32546.32523.32546-.14587.32546-.32523-.14598-.32546-.32546-.32546ZM204.60521,70.72166c-.17948,0-.32546.1461-.32546.32546s.14598.32523.32546.32523.32546-.14587.32546-.32523-.14598-.32546-.32546-.32546ZM205.7455,25.38073c-1.51705,0-2.99815.53298-4.17031,1.50053-.03338.02745-.0399.06374-.04083.08305-.00093.02047.00256.06002.03641.09399l.84856.84797c.04409.04397.11388.04606.16611.00465.91021-.71607,2.00292-1.09457,3.16007-1.09457,1.15727,0,2.24998.37851,3.16007,1.09434.05246.04118.12237.03908.16622-.00442l.84856-.84797c.03385-.03397.03734-.07351.03641-.09399-.00093-.01931-.00744-.0556-.04083-.08305-1.17204-.96755-2.65315-1.50053-4.17043-1.50053ZM233.94397,109.28066c-.53728,0-.9743.43713-.9743.97453,0,.53717.43702.9743.9743.9743.38287,0,.71153-.22397.87072-.54595.06421-.12987.10358-.27399.10358-.42835,0-.01396-.00355-.02699-.00413-.04083-.02193-.51809-.44684-.9337-.97017-.9337ZM246.37197,76.36412h1.82716c-.15331,3.85898-3.26336,6.96898-7.12229,7.12217v-1.82704h-.59556v1.82704c-3.85916-.15296-6.9695-3.26313-7.12275-7.12217h1.82774v-.59556h-1.82774c.15296-3.85921,3.26342-6.96968,7.12275-7.12264v1.82774h.59556v-1.82774c3.85921.15325,6.96944,3.26348,7.12229,7.12264h-1.82716v.59556ZM244.3772,79.37193l-.52426-.99035-.27969-.17832c.31709-.50442.45621-1.12261.34088-1.75353-.11824-.64639-.48157-1.18635-.97494-1.54601l.39043-.34977.47866-1.50798-.56764-.18006-.42957,1.35304-.42532.38118c-.07764-.03059-.1568-.05706-.23756-.07968.08349-.18664.13095-.3927.13095-.60998,0-.49558-.24264-.93452-.61426-1.20781l.32183-.59539-.52391-.28336-.33942.62795c-.1108-.02617-.22566-.04147-.34431-.04147-.11862,0-.23351.0153-.34425.04147l-.33936-.62795-.52391.28336.3218.59539c-.37159.27329-.61423.71229-.61423,1.20781,0,.21717.0474.42317.13083.60969-.08081.02262-.16003.04915-.2377.07974l-.42506-.38095-.42957-1.35304-.56764.18006.47866,1.50798.39014.34954c-.49331.35966-.85644.89968-.97465,1.54624-.11202.61254.01044,1.2302.33997,1.75411l-.27879.17774-.52426.99035.52623.2787.45074-.85123.20138-.12848c.07378.0713.15296.13586.23459.19699l-.191.1497-.42573,1.03641.55089.22613.36594-.89078.26108-.20472c.15075.05985.30845.10539.47162.13516l.29289.05351.09457-.51716c.21295.06514.4387.10073.67268.10073.29874,0,.58349-.05897.84571-.16285l.10591.57927.29289-.05351c.16419-.03001.32139-.07613.47081-.13569l.26178.20525.36594.89078.55089-.22613-.42573-1.03641-.19234-.15081c.08195-.06148.1609-.12638.23415-.1971l.20327.1297.45074.85123.52623-.2787ZM232.91988,105.36695l.02792.29778.02786.29778.09242.98616h1.75178l.09242-.98616.02786-.29778.02792-.29778.32046-3.42028h-2.68909l.32046,3.42028ZM211.10891,70.72166c-.17948,0-.32546.1461-.32546.32546s.14598.32523.32546.32523c.17937,0,.32535-.14587.32535-.32523s-.14598-.32546-.32535-.32546ZM205.7455,17.25622c-3.68258,0-7.20639,1.37491-9.92212,3.87137-.0342.03141-.04001.06933-.04036.0891-.00047.01931.00361.0563.03525.08794l.84355.84355c.04583.0456.11783.04885.16401.00605,2.44633-2.23265,5.6142-3.46239,8.91967-3.46239,3.30687,0,6.47473,1.2295,8.9199,3.46239.0463.04234.11841.03955.16401-.00605l.84344-.84355c.03176-.03164.03583-.06886.03536-.08794-.00047-.01977-.00616-.05769-.04036-.08887-2.71585-2.4967-6.23965-3.8716-9.92235-3.8716ZM205.7455,21.31859c-2.59964,0-5.10297.95313-7.04889,2.68351-.0335.03001-.03955.06723-.04013.08654-.00058.01977.00337.05793.03571.09026l.84448.84518c.04467.0449.11667.04699.1639.00558,1.67338-1.4675,3.82019-2.27569,6.04493-2.27569,2.22486,0,4.37166.80819,6.04493,2.27569.04734.04164.11958.03932.16401-.00558l.84448-.84518c.03245-.03234.03629-.07026.03571-.09003-.00058-.01954-.00663-.05676-.04013-.08677-1.94592-1.73038-4.44937-2.68351-7.04901-2.68351Z"/>
  <path id="path-03" class="st1" d="M39.16503,93.90684h6.89011v1.37304h-6.89011v-1.37304ZM43.79957,66.23472H13.7893v-20.72315h30.01027v20.72315ZM33.53199,50.76111c0-1.03618-.84309-1.87904-1.87939-1.87904-1.03618,0-1.87927.84286-1.87927,1.87904s.84309,1.87904,1.87927,1.87904c1.0363,0,1.87939-.84286,1.87939-1.87904ZM39.81863,62.86423l-7.23465-9.06647-2.32594,2.91452,4.90848,6.15195h4.65211ZM33.66657,62.86376l-7.94805-9.96097-7.94816,9.96097h15.89621ZM75.53964,17.68731h-13.29947v1.24905h13.29947v-1.24905ZM75.53964,14.02275h-13.29947v1.24905h13.29947v-1.24905ZM114.09736,76.63864c0-2.45761.88845-4.83822,2.5017-6.70307.09748-.11306.19751-.22403.29987-.33244.09783-.10399.19751-.20635.29976-.30569.61708-.60207,1.30918-1.12575,2.05712-1.55636.09922-.057.19867-.11353.29987-.1675.0991-.05234.19879-.10399.29964-.15378,1.41248-.69257,2.92801-1.04386,4.5045-1.04386,1.5766,0,3.09202.35129,4.50415,1.04386.10108.04979.20077.1012.29987.15378.1012.05374.20077.1105.29987.1675.74794.43062,1.44004.95429,2.05712,1.55613.10225.10004.20205.20193.29999.30615.10213.10795.20193.21891.29964.33198,1.61325,1.86485,2.5017,4.24546,2.5017,6.7033,0,5.65875-4.60372,10.2627-10.26235,10.2627s-10.26247-4.60396-10.26247-10.2627ZM121.38448,73.33561c0,.23124.02896.46807.08584.7042.02431.1012.05304.19891.0855.2908.03466.09841.07526.19612.12039.2908.18065.37688.43318.70513.7505.97569l.01489.01256.01233.03187-.94673,7.05157h5.70516l-.94929-7.07087.01501-.01256c.33198-.28289.58451-.61138.76527-.98826.0442-.09213.08468-.18983.12028-.2908.03222-.0905.06095-.18844.0855-.2908.057-.23613.08596-.47296.08596-.7042,0-.44737-.1005-.88147-.29871-1.29069-.05002-.10283-.10422-.20077-.1611-.2908-.07026-.1112-.13772-.20635-.20635-.2908-.56927-.70095-1.41096-1.10272-2.30919-1.10272-.89811,0-1.7398.40177-2.30907,1.10272-.06898.08468-.13644.17983-.20624.2908-.05793.09143-.11202.18937-.16087.2908-.19844.40921-.29906.84355-.29906,1.29069ZM75.53964,10.35797h-13.29947v1.24905h13.29947v-1.24905ZM81.76859,34.84059v-17.27751l-12.47442,8.64306,12.47442,8.63445ZM39.16503,109.64893h13.99635v-1.37281h-13.99635v1.37281ZM180.0749,14.67229l-.00023.04885c-.01768,2.24172-1.88404,4.06539-4.16043,4.06539h-17.44571c-2.27627,0-4.14275-1.82367-4.16054-4.06516l-.00012-.04909c0-.29127.02443-.5923.07468-.92033.01559-.10143.03338-.20147.05397-.3015.02082-.10143.04234-.20193.0684-.3015.59207-2.27127,2.47471-3.98885,4.79623-4.37527.07433-.0121.13726-.06049.16866-.12912.68106-1.49169,1.77714-2.74865,3.16961-3.63501.05769-.03652.11667-.07096.17588-.10539l.1454-.08538c.06677-.03955.13365-.07933.20228-.11655,1.23846-.66954,2.63105-1.02339,4.02747-1.02339,3.31199,0,6.34341,1.94929,7.72273,4.96571.03129.06863.09434.11702.16855.12912,2.89323.4818,4.99316,2.96244,4.99316,5.8986ZM163.65025,12.15698l3.41621,5.06528,3.68514-5.06528h-1.89113l-.00023-5.21603h-3.30082l.00012,5.21603h-1.90928ZM176.50678,150.71742h-19.35266c-.63988,0-1.16041.51995-1.16041,1.15901v1.36118h21.67349v-1.36118c0-.63906-.52053-1.15901-1.16041-1.15901ZM26.21067,133.63626c0,2.81821-1.7733,5.37469-4.41284,6.36109l-.14715.05514v5.54406l-1.03839.5474v6.98992l1.03839.54764v2.31082l-2.00303,1.97977v-17.53946h-.45272v17.61391l-2.00315-2.05142v-15.94262l-.14726-.05514c-2.63942-.9864-4.41272-3.54288-4.41272-6.36109,0-3.74365,3.04573-6.78961,6.7895-6.78961s6.78938,3.04596,6.78938,6.78961ZM21.00069,130.77617c0-.96453-.78481-1.74922-1.74946-1.74922s-1.74946.7847-1.74946,1.74922.78481,1.74922,1.74946,1.74922,1.74946-.7847,1.74946-1.74922ZM176.554,131.8747l.0064-.00256c.39142-.15471.57485-.48482.61336-1.10574l-.00058-69.48878c0-.66512-.54112-1.20647-1.20624-1.20647h-25.40015l-.00372.06793c-.09922,1.83739-.23706,3.62338-.4098,5.30862l-.00791.07887h19.14736c.91486,0,1.65908.74398,1.65908,1.65873v57.69205c0,.91474-.74422,1.65896-1.65908,1.65896h-89.86634c-.91474,0-1.65896-.74422-1.65896-1.65896v-57.69205c0-.91474.74422-1.65873,1.65896-1.65873h19.19796l-.00861-.07956c-.1839-1.6885-.33175-3.47449-.43911-5.30839l-.00395-.06747-25.424.00047c-.73131.03769-1.13598.44667-1.20275,1.2188v69.49483c0,.46691.26951.88403.71874,1.09201h104.27633l.01303-.00256ZM233.94397,114.3913c-1.1689,0-2.29453-.25404-3.3456-.75515-.09213-.04374-.18262-.09026-.27277-.13772-.0912-.04792-.18123-.09771-.27021-.14936-2.41481-1.39445-3.91487-3.98513-3.91487-6.761,0-.18728.00884-.38991.02687-.61999l.00605-.07724h-19.39361l-4.76378,20.42839h29.55732l2.52903-11.93073-.15843.00279ZM218.31565,79.1479h-23.08515v-27.89755h23.08515v27.89755ZM206.77307,63.26786c2.7526,0,4.992-2.23916,4.992-4.99177s-2.2394-4.99177-4.992-4.99177-4.99188,2.23916-4.99188,4.99177,2.2394,4.99177,4.99188,4.99177ZM209.63153,74.67655h-5.71691c-.67198,0-1.2188.54647-1.2188,1.21857s.54682,1.21857,1.2188,1.21857h5.71691c.6721,0,1.21892-.54647,1.21892-1.21857s-.54682-1.21857-1.21892-1.21857ZM200.0486,71.04712c0,.92986.75678,1.68641,1.68688,1.68641h10.07531c.9301,0,1.68676-.75655,1.68676-1.68641,0-.9301-.75666-1.68664-1.68676-1.68664h-10.07531c-.9301,0-1.68688.75655-1.68688,1.68664ZM213.49754,66.99174c0-.9301-.75666-1.68664-1.68676-1.68664h-10.07531c-.9301,0-1.68688.75655-1.68688,1.68664s.75678,1.68664,1.68688,1.68664h10.07531c.9301,0,1.68676-.75655,1.68676-1.68664ZM155.9937,155.98533h21.67349v8.13288c0,.63999-.52053,1.16064-1.16041,1.16064h-19.35266c-.63988,0-1.16041-.52065-1.16041-1.16064v-8.13288ZM163.56545,159.8681v-2.74795h-6.58082v2.74795h6.58082ZM166.31061,163.53149v-2.17472h-4.14321v2.17472h4.14321ZM156.98464,161.35677v2.17472h4.14309v-2.17472h-4.14309ZM171.49349,163.53149v-2.17472h-4.14321v2.17472h4.14321ZM172.53316,161.35677v2.17472h4.14309v-2.17472h-4.14309ZM39.16503,114.43876h13.99635v-1.37304h-13.99635v1.37304ZM39.16503,104.85933h13.99635v-1.37304h-13.99635v1.37304ZM68.88997,26.4767l-12.44743,8.61584h24.89497l-12.44755-8.61584ZM39.16503,100.06949h13.99635v-1.37281h-13.99635v1.37281ZM56.01134,17.56261v17.27798l12.48116-8.6391-12.48116-8.63887Z"/>
  <path id="path-02" class="st2" d="M206.77307,62.81561c2.50298,0,4.53928-2.03653,4.53928-4.53951s-2.0363-4.53951-4.53928-4.53951-4.53916,2.03653-4.53916,4.53951,2.0363,4.53951,4.53916,4.53951ZM208.17892,58.81117l-.0627.06049.07189.04979c.68373.46924,1.09201,1.24207,1.09201,2.06724v.22613h-5.01398v-.22613c0-.82518.40817-1.59801,1.09201-2.06748l.07177-.04955-.06258-.06049c-.39782-.38595-.61685-.90148-.61685-1.45121,0-1.11528.9073-2.02258,2.02258-2.02258s2.02269.9073,2.02269,2.02258c0,.55019-.21915,1.06549-.61685,1.45121ZM131.34998,60.12628c.12772.54252.19239,1.0962.19239,1.64616v6.92361l-.11865-.10422c-.62359-.54787-1.30639-1.02152-2.02932-1.40817l-.01884-.01-.01884-.03164v-6.10867c0-.29266-.03082-.58718-.09166-.87566-.02071-.09957-.04781-.19635-.07538-.29313-.02838-.0991-.06153-.19635-.09678-.29243-.61417-1.67269-2.21916-2.79657-3.99397-2.79657h-1.47831c-1.77481,0-3.3798,1.12389-3.99397,2.79657-.03525.09631-.0684.19332-.09689.29243-.02757.09678-.05455.19356-.07526.29289-.06084.28917-.09166.58393-.09166.87589v6.13008l-.01873.01c-.74212.39688-1.42481.87054-2.04828,1.41841l-.11865.10422v-6.92361c0-.5495.06479-1.10341.19251-1.64593.02373-.10097.04967-.2017.0777-.30104.02861-.10097.05909-.201.09166-.30034.97523-2.95221,3.71632-4.9357,6.82067-4.9357s5.84544,1.98349,6.82067,4.9357c.0328.0991.06305.19937.09178.30034.02803.09934.05386.19984.07782.3008ZM154.01975,13.23876h-13.9632l.00349-.07491c.14761-3.04899,2.65687-5.43751,5.7126-5.43751.58707,0,1.16448.0884,1.71654.26288l.21461.0677.06886-.21449c1.15401-3.59127,4.4667-6.00445,8.24327-6.00445,2.39154,0,4.69527.99547,6.32038,2.7312l.05839.06235-.07165.04653c-1.38665.90148-2.49286,2.15937-3.19904,3.63733l-.00768.01628-.02536.01977c-2.50089.47738-4.47926,2.3727-5.05819,4.83194l-.01303.05537ZM98.63049,60.14699c.10853,1.83856.25742,3.6271.44271,5.31584l.0677.59602c.75248,6.47578,2.08702,11.97587,4.07982,16.81432,3.76052,9.13184,9.99075,16.13711,19.04674,21.41619l2.10377,1.22648,2.09853-1.23532c9.20209-5.41541,15.22492-12.04124,18.95427-20.8518,2.09551-4.95012,3.47251-10.6319,4.20975-17.37033l.03327-.29848.03013-.29755c.1739-1.6892.31279-3.47774.41259-5.31584l.03036-.59556c.12062-2.43388.18181-5.05714.18181-7.79695v-4.15729h-11.78208c-.60917,0-1.23393-.27056-1.75911-.76166-1.36141-1.27347-3.33002-2.22335-5.85149-2.82332-1.97267-.46993-4.25534-.71839-6.60129-.71839s-4.62862.24846-6.60117.71839c-2.52171.60021-4.49043,1.55008-5.85172,2.82356-.52472.4911-1.14936.76143-1.75888.76143h-11.71857v4.15729c0,2.71864.06723,5.34212.19972,7.79764l.03315.59533ZM146.39135,51.75402c0,2.75144-.06258,5.37213-.18611,7.7895l-.03141.59533c-.10318,1.8467-.2466,3.63291-.42643,5.30839l-.06549.59533c-.7042,6.16753-1.97267,11.35355-3.87765,15.85398-3.38376,7.99399-8.89001,14.03032-17.32846,18.99672l-.11423.067-.11434-.06677c-8.28316-4.82845-13.97215-11.21257-17.39197-19.51691-1.81122-4.39784-3.04084-9.41403-3.75912-15.33496l-.03664-.29708-.03373-.29755c-.19216-1.68176-.34629-3.46774-.45807-5.30839l-.03548-.59509c-.1354-2.43226-.20403-5.05295-.20403-7.7895v-.22613h7.78787c1.60952,0,3.18787-.64721,4.44413-1.82204,1.64233-1.53613,5.38516-2.49018,9.76776-2.49018,4.38237-.00023,8.1252.95383,9.76776,2.49018,1.25614,1.17483,2.83449,1.82204,4.44413,1.82204h7.8515v.22613ZM56.21013,17.14898l2.36142-1.34792v2.97315l-2.36142-1.62523ZM81.57085,17.14898l-2.36246,1.63546v-2.98361l2.36246,1.34815ZM55.20733,89.06955l2.97931-.00023-.02768,3.09412h-3.01909v-3.08621l.06747-.00768ZM28.11542,84.4649h24.06852v4.064h-18.52679l.01908,2.31221v23.82308h-5.56081v-30.19929ZM130.0002,177.04115l1.15483,1.38933-.04467.05048c-.02443.02047-.04536.03559-.06642.05072l-.04548.0335c-.06212.04792-.12574.09492-.19018.14075-.07805.0556-.15738.10864-.23787.16006-.06572.04211-.13179.08375-.19926.12307-.08294.04839-.1675.09399-.25241.13819-.07026.03676-.13737.07165-.20554.10422-.0884.04141-.17797.0791-.26789.11632l-.03862.01605c-.0563.02373-.11295.04699-.17029.06816-.08666.0321-.17483.05979-.26323.08771l-.0777.02443c-.05002.01628-.1005.03234-.15133.04606-.09317.02536-.18751.04583-.28184.06607l-.09143.02047c-.05234.01186-.09201.02071-.13202.02792-.11411.02047-.22962.0342-.34477.04792l-.06595.00861c-.03525.00512-.06991.01-.1048.01326-.17913.01605-.35513.02419-.52356.02419-.16808,0-.34384-.00814-.52239-.02419-.03559-.00302-.07084-.00814-.10608-.01326l-.06665-.00884c-.11481-.01373-.22915-.02745-.3421-.04769-.0449-.00791-.08922-.01815-.13354-.02815l-.09352-.02071c-.09282-.02001-.18588-.04025-.27742-.06537-.05293-.01442-.10492-.03117-.15703-.04769l-.05479-.01745c-.09352-.02908-.18739-.05886-.27975-.09282-.06049-.02233-.12016-.04699-.17971-.07189l-.03234-.01349c-.08864-.03676-.17692-.07421-.26405-.11516-.07014-.03327-.139-.06909-.20775-.10515-.08445-.04397-.1682-.0891-.25055-.13772-.06735-.03908-.13365-.08049-.19961-.12283-.08049-.05165-.15994-.10469-.23799-.16052-.06409-.04536-.12714-.09189-.18937-.14051l-.04129-.03001c-.02117-.01512-.04269-.03071-.06339-.04746l-.05781-.04676,1.19577-1.37118.05339.04188c.72584.56881,1.59335.86938,2.50879.86938.93289,0,1.81285-.30988,2.54474-.89613l.0549-.04374ZM172.98588,161.80902h3.23766v1.27022h-3.23766v-1.27022ZM167.803,161.80902h3.23777v1.27022h-3.23777v-1.27022ZM163.11273,159.41585h-5.67538v-1.84344h5.67538v1.84344ZM162.62012,161.80902h3.23777v1.27022h-3.23777v-1.27022ZM241.50281,78.23339l-.04944.0235c-.24346.11679-.50146.17611-.76643.17611-.1974,0-.39514-.03443-.588-.1019l-.05746-.02047.54554-2.98431.06514.00605c.04176.00395.0841.00628.12691.00628s.08515-.00233.12714-.00628l.06502-.00558.53158,2.90661ZM185.42877,132.32951l.00047.07119c.00105.15494-.00012.30499-.00128.45109l-.00151.30383c0,4.95105-2.4112,6.70796-4.47612,6.70796h-112.75165c-3.29035,0-4.46274-3.33979-4.46274-6.46508,0-.1675-.00605-.33803-.01245-.51181-.00582-.16424-.0114-.32407-.01245-.48506l-.00047-.07212h121.7182ZM216.11254,102.686l.60393,2.7526h-13.10662c-.11795,0-.21484.0884-.22543.20589l-1.64733,18.30555-.1347.00326-2.92859-21.2673h17.43873ZM92.07236,154.19237h-21.45806c-.28626,0-.51925.23311-.51925.51949v3.55265c0,.28638.23299.51949.51925.51949h21.45806c.28626,0,.51925-.23311.51925-.51949v-3.55265c0-.28638-.23299-.51949-.51925-.51949ZM72.44739,156.56298c0-.67349.54787-1.22113,1.22136-1.22113s1.22136.54764,1.22136,1.2209c0,.67349-.54787,1.22113-1.22136,1.22113s-1.22136-.54764-1.22136-1.2209ZM75.82521,156.56298c0-.67349.54787-1.22113,1.22136-1.22113.67338,0,1.22125.54764,1.22125,1.2209,0,.67349-.54787,1.22113-1.22125,1.22113-.67349,0-1.22136-.54764-1.22136-1.2209ZM84.40173,157.63871v-2.15169h.45272v2.15169h-.45272ZM86.19667,157.63871v-2.15169h.45272v2.15169h-.45272ZM87.99161,157.63871v-2.15169h.45272v2.15169h-.45272ZM89.78655,157.63871v-2.15169h.45272v2.15169h-.45272ZM123.37041,174.50188l.00977.0663-1.70851.36548-.03362.01954-.0513.02722-.00233-.11679c-.02326-.13703-.04013-.28033-.05351-.42364l-.00838-.10399c-.01245-.16611-.01815-.30429-.01815-.43481,0-.14726.00605-.30057.01803-.45551.00221-.02978.00605-.05956.00977-.0891l.00989-.08631c.00919-.09096.01861-.18239.0328-.27242.00523-.03466.0121-.06863.01908-.10306l.02245-.11655c.01361-.07328.02722-.1468.04432-.21915.00954-.04094.02082-.08142.0321-.1219l.02652-.09678c.01896-.07119.03769-.14098.05944-.20961.01361-.04257.02861-.08422.04362-.12586l.03071-.08631c.02396-.0684.04804-.13703.07503-.20403.01733-.0435.03652-.08654.0556-.12912l.03234-.07328c.02943-.06723.05909-.13447.09143-.20054.02059-.04188.04269-.08305.06479-.12446l.02675-.04955c.04025-.07584.07712-.14517.11679-.21287.02734-.0463.05607-.09189.0848-.13726l.01943-.03071c.04513-.07119.08736-.13772.13202-.20216.03501-.05072.07154-.10004.10829-.14936.05618-.07561.10434-.14005.15471-.2024.04164-.05188.08468-.1019.12807-.15191.05246-.06095.1055-.12097.16041-.18006.04583-.04839.09247-.09585.13935-.14261.057-.05653.11469-.11237.17378-.16727.04932-.0449.09957-.08933.15005-.13261.06107-.05258.12318-.10376.18669-.15401.05246-.04164.10597-.08235.16006-.1219.06491-.04792.13121-.09422.19844-.13935.05595-.03792.11271-.07514.17041-.1112.06851-.04257.13819-.08422.20856-.124.06002-.0342.12004-.06747.18111-.09934.07142-.03746.14447-.07282.21787-.10748.06328-.03001.12679-.05932.19146-.08724.00047-.00023.06537-.03048.08108-.03676l.06758-.02792.6536,1.69525-.06398.02699c-1.51775.64046-2.49856,2.11633-2.49856,3.76017,0,.18309.0157.37362.04932.60021ZM92.07236,167.36075h-21.45806c-.28626,0-.51925.23311-.51925.51949v3.55265c0,.28638.23299.51949.51925.51949h21.45806c.28626,0,.51925-.23311.51925-.51949v-3.55265c0-.28638-.23299-.51949-.51925-.51949ZM72.44739,169.73136c0-.67326.54787-1.2209,1.22136-1.2209s1.22136.54764,1.22136,1.2209-.54787,1.2209-1.22136,1.2209-1.22136-.54764-1.22136-1.2209ZM75.82521,169.73136c0-.67326.54787-1.2209,1.22136-1.2209.67338,0,1.22125.54764,1.22125,1.2209s-.54787,1.2209-1.22125,1.2209c-.67349,0-1.22136-.54764-1.22136-1.2209ZM84.40173,170.80732v-2.15192h.45272v2.15192h-.45272ZM86.19667,170.80732v-2.15192h.45272v2.15192h-.45272ZM87.99161,170.80732v-2.15192h.45272v2.15192h-.45272ZM89.78655,170.80732v-2.15192h.45272v2.15192h-.45272ZM157.43735,161.80902h3.23766v1.27022h-3.23766v-1.27022ZM92.07236,160.80099h-21.45806c-.28626,0-.51925.23311-.51925.51949v3.55265c0,.28638.23299.51949.51925.51949h21.45806c.28626,0,.51925-.23311.51925-.51949v-3.55265c0-.28638-.23299-.51949-.51925-.51949ZM72.44739,163.17159c0-.67326.54787-1.2209,1.22136-1.2209s1.22136.54764,1.22136,1.2209-.54787,1.2209-1.22136,1.2209-1.22136-.54764-1.22136-1.2209ZM75.82521,163.17159c0-.67326.54787-1.2209,1.22136-1.2209.67338,0,1.22125.54764,1.22125,1.2209s-.54787,1.2209-1.22125,1.2209c-.67349,0-1.22136-.54764-1.22136-1.2209ZM84.40173,164.24756v-2.15192h.45272v2.15192h-.45272ZM86.19667,164.24756v-2.15192h.45272v2.15192h-.45272ZM87.99161,164.24756v-2.15192h.45272v2.15192h-.45272ZM89.78655,164.24756v-2.15192h.45272v2.15192h-.45272ZM125.37205,173.90167c0-.78632.46342-1.50891,1.18065-1.84042.09236-.04304.1896-.07956.28917-.10841.09957-.02861.20286-.04979.30685-.06235.08259-.01047.16634-.01768.25183-.01768.12702,0,.25777.01303.38828.03839.09585.01861.19344.04606.29813.08352.10736.03908.19984.08003.28289.12539.65349.35687,1.05933,1.03944,1.05933,1.78156,0,.02559-.00163.05048-.00326.07561l-.00209.0328c-.00593.11283-.01826.2131-.03757.30662-.01966.09422-.04874.19146-.08864.29731-.06025.16052-.1397.31151-.23601.44876-.0599.08561-.12714.16704-.19972.24241-.06921.07212-.14668.14121-.23031.20542-.35827.27452-.78388.41992-1.23102.41992-.41224,0-.81005-.12446-1.15029-.35989-.08061-.0556-.16099-.12121-.23904-.19449-.07584-.07189-.14633-.14912-.20926-.22962-.1169-.15005-.2117-.31406-.28196-.48738-.03769-.09375-.06909-.19332-.09306-.29615-.02338-.10004-.0392-.20286-.04699-.30546-.00419-.05165-.00791-.10329-.00791-.15587ZM133.19784,174.79315l-.01163.07444-1.75481-.36083.00861-.06607c.02734-.20449.04013-.37571.04013-.53903,0-1.59405-.94231-3.05178-2.40073-3.71387l-.06084-.02792.63499-1.6913.06886.02978c2.41399,1.04642,3.87567,3.69387,3.47542,6.29479Z"/>
  <path id="path-01" class="st0" d="M184.96477,45.70042v-2.98745h2.98745v2.98745h-2.98745ZM89.87902,69.81041h-6.22627v.59556h6.22627v-.59556ZM96.32851,101.00796l.42108.42108,4.40272-4.40272-.42108-.42108-4.40272,4.40272ZM86.77548,86.39046l.22403.55182,5.76855-2.34315-.22403-.55182-5.76855,2.34315ZM46.57928,95.80379h-7.93839v-2.42086h7.93839v2.42086ZM45.98372,93.9785h-6.74727v1.22974h6.74727v-1.22974ZM38.64089,98.17277h15.04463v2.42062h-15.04463v-2.42062ZM39.23645,99.99784h13.85351v-1.2295h-13.85351v1.2295ZM38.64089,102.96238h15.04463v2.42086h-15.04463v-2.42086ZM39.23645,104.78767h13.85351v-1.22974h-13.85351v1.22974ZM38.64089,107.75221h15.04463v2.42062h-15.04463v-2.42062ZM39.23645,109.57727h13.85351v-1.2295h-13.85351v1.2295ZM38.64089,112.54181h15.04463v2.42086h-15.04463v-2.42086ZM39.23645,114.36711h13.85351v-1.22974h-13.85351v1.22974ZM13.26516,44.98767h31.05855v21.77096H13.26516v-21.77096ZM13.86072,66.16307h29.86743v-20.57984H13.86072v20.57984ZM25.71852,52.78834l8.09647,10.14708h-16.19306l8.09659-10.14708ZM32.57781,62.33986l-6.85929-8.59676-6.8594,8.59676h13.71869ZM32.58398,53.6833l7.38308,9.25258h-4.83497l-4.96548-6.2236,2.41737-3.02898ZM38.72987,62.34032l-6.1459-7.70226-1.65547,2.07422,4.49019,5.62804h3.31117ZM29.70191,50.76111c0-1.07573.87508-1.95069,1.95069-1.95069,1.07573,0,1.95081.87496,1.95081,1.95069s-.87508,1.95069-1.95081,1.95069c-1.07561,0-1.95069-.87496-1.95069-1.95069ZM30.29747,50.76111c0,.74724.60789,1.35513,1.35513,1.35513s1.35525-.60789,1.35525-1.35513-.60801-1.35513-1.35525-1.35513-1.35513.60789-1.35513,1.35513ZM205.7455,16.66066c3.8324,0,7.49928,1.43074,10.32528,4.02864.14389.13214.2288.31988.23287.51483.00407.19705-.07037.38223-.20973.52158l-.84344.84355c-.14017.14028-.32372.211-.50727.211-.17157,0-.34314-.06188-.47947-.18635-2.33513-2.13215-5.36039-3.30652-8.51825-3.30652-3.15658,0-6.18184,1.17437-8.51825,3.30675-.28196.2573-.71537.2466-.98651-.02489l-.84355-.84355c-.13935-.13935-.2138-.32453-.20961-.52158.00407-.19495.08887-.38269.23264-.51483,2.82612-2.5979,6.493-4.02864,10.32528-4.02864ZM215.66785,21.12783c-2.71585-2.4967-6.23965-3.8716-9.92235-3.8716s-7.20639,1.37491-9.92212,3.87137c-.0342.03141-.04001.06933-.04036.0891-.00047.01931.00361.0563.03525.08794l.84355.84355c.04583.0456.11783.04885.16401.00605,2.44633-2.23265,5.6142-3.46239,8.91967-3.46239,3.30687,0,6.47473,1.2295,8.9199,3.46239.0463.04234.11841.03955.16401-.00605l.84344-.84355c.03176-.03164.03583-.06886.03536-.08794-.00047-.01977-.00616-.05769-.04036-.08887ZM211.39762,25.47727c-1.56451-1.37211-3.57185-2.12773-5.65212-2.12773-2.08015,0-4.08749.75562-5.65212,2.12773-.13482.11841-.30336.17704-.47145.17704-.18402,0-.36757-.07026-.50657-.20914l-.84437-.84518c-.139-.13912-.21554-.33175-.20973-.52856.0057-.19658.09306-.38386.23962-.51414,2.05503-1.82762,4.69899-2.83426,7.44461-2.83426s5.3897,1.00664,7.44473,2.83426c.14656.13028.23392.31755.23962.5139.00582.19681-.07061.38967-.20961.52879l-.84448.84518c-.26579.26568-.6956.2801-.97814.0321ZM199.70057,25.02967c1.67338-1.4675,3.82019-2.27569,6.04493-2.27569,2.22486,0,4.37166.80819,6.04493,2.27569.04734.04164.11958.03932.16401-.00558l.84448-.84518c.03245-.03234.03629-.07026.03571-.09003-.00058-.01954-.00663-.05676-.04013-.08677-1.94592-1.73038-4.44937-2.68351-7.04901-2.68351s-5.10297.95313-7.04889,2.68351c-.0335.03001-.03955.06723-.04013.08654-.00058.01977.00337.05793.03571.09026l.84448.84518c.04467.0449.11667.04699.1639.00558ZM208.53718,28.37853c-.80389-.63232-1.76935-.96662-2.79169-.96662s-1.98768.3343-2.79169.96685c-.13319.10492-.29255.15657-.45074.15657-.18413,0-.36664-.07002-.50471-.20798l-.84856-.84797c-.14319-.14307-.21985-.34105-.21031-.54322.00954-.19984.10294-.38735.25649-.51414,1.27871-1.05549,2.8944-1.63686,4.54952-1.63686,1.65524,0,3.27104.58137,4.54963,1.63686.15354.12679.24695.3143.25649.51414.00954.20216-.06712.40014-.21019.54322h-.00012l-.84867.84797c-.25625.25637-.66721.2787-.95545.05118ZM202.58543,27.91093c.91021-.71607,2.00292-1.09457,3.16007-1.09457,1.15727,0,2.24998.37851,3.16007,1.09434.05246.04118.12237.03908.16622-.00442l.84856-.84797c.03385-.03397.03734-.07351.03641-.09399-.00093-.01931-.00744-.0556-.04083-.08305-1.17204-.96755-2.65315-1.50053-4.17043-1.50053-1.51705,0-2.99815.53298-4.17031,1.50053-.03338.02745-.0399.06374-.04083.08305-.00093.02047.00256.06002.03641.09399l.84856.84797c.04409.04397.11388.04606.16611.00465ZM206.9821,29.67039c.20903.51111.09748,1.07038-.29092,1.45912-.25253.25265-.58835.392-.94557.392-.35734,0-.69315-.13935-.94568-.392-.38839-.38874-.49994-.94778-.29092-1.45912.20531-.50227.66756-.8175,1.20624-.82285h.05769c.54159.00535,1.00384.32058,1.20915.82285ZM206.26987,30.70843c.25811-.25823.25241-.58905.16099-.81261-.11469-.28056-.36176-.44993-.66082-.45272h-.05188c-.29615.00279-.54322.17215-.65791.45272-.09143.22357-.09713.55438.16099.81261.27998.28033.76841.28056,1.04863,0ZM194.70636,50.72644h24.13343v28.94536h-24.13343v-28.94536ZM195.30192,79.07625h22.94231v-27.75424h-22.94231v27.75424ZM210.92187,75.89512c0,.71141-.57881,1.29022-1.29034,1.29022h-5.71691c-.71141,0-1.29022-.57881-1.29022-1.29022s.57881-1.29022,1.29022-1.29022h5.71691c.71153,0,1.29034.57881,1.29034,1.29022ZM210.32631,75.89512c0-.38293-.31162-.69466-.69478-.69466h-5.71691c-.38304,0-.69466.31174-.69466.69466s.31162.69466.69466.69466h5.71691c.38316,0,.69478-.31174.69478-.69466ZM213.56897,71.04712c0,.96941-.78877,1.75806-1.75818,1.75806h-10.07531c-.96953,0-1.7583-.78865-1.7583-1.75806s.78877-1.7583,1.7583-1.7583h10.07531c.96941,0,1.75818.78888,1.75818,1.7583ZM212.97341,71.04712c0-.64116-.52158-1.16274-1.16262-1.16274h-10.07531c-.64116,0-1.16274.52158-1.16274,1.16274,0,.64092.52158,1.1625,1.16274,1.1625h10.07531c.64104,0,1.16262-.52158,1.16262-1.1625ZM203.35837,71.04712c0,.50762-.41317.92079-.92102.92079s-.92102-.41317-.92102-.92079c0-.50785.41317-.92102.92102-.92102s.92102.41317.92102.92102ZM202.76282,71.04712c0-.17937-.14598-.32546-.32546-.32546s-.32546.1461-.32546.32546.14598.32523.32546.32523.32546-.14587.32546-.32523ZM205.52624,71.04712c0,.50762-.41317.92079-.92102.92079s-.92102-.41317-.92102-.92079c0-.50785.41317-.92102.92102-.92102s.92102.41317.92102.92102ZM204.93068,71.04712c0-.17937-.14598-.32546-.32546-.32546s-.32546.1461-.32546.32546.14598.32523.32546.32523.32546-.14587.32546-.32523ZM207.6941,71.04712c0,.50762-.41317.92079-.92102.92079s-.92102-.41317-.92102-.92079c0-.50785.41317-.92102.92102-.92102s.92102.41317.92102.92102ZM207.09854,71.04712c0-.17937-.14598-.32546-.32546-.32546s-.32546.1461-.32546.32546.14598.32523.32546.32523.32546-.14587.32546-.32523ZM209.86196,71.04712c0,.50762-.41317.92079-.92102.92079-.50774,0-.92091-.41317-.92091-.92079,0-.50785.41317-.92102.92091-.92102.50785,0,.92102.41317.92102.92102ZM209.2664,71.04712c0-.17937-.14598-.32546-.32546-.32546-.17937,0-.32535.1461-.32535.32546s.14598.32523.32535.32523c.17948,0,.32546-.14587.32546-.32523ZM212.02982,71.04712c0,.50762-.41317.92079-.92091.92079-.50785,0-.92102-.41317-.92102-.92079,0-.50785.41317-.92102.92102-.92102.50774,0,.92091.41317.92091.92102ZM211.43426,71.04712c0-.17937-.14598-.32546-.32535-.32546-.17948,0-.32546.1461-.32546.32546s.14598.32523.32546.32523c.17937,0,.32535-.14587.32535-.32523ZM213.56897,66.99174c0,.96941-.78877,1.7583-1.75818,1.7583h-10.07531c-.96953,0-1.7583-.78888-1.7583-1.7583s.78877-1.7583,1.7583-1.7583h10.07531c.96941,0,1.75818.78888,1.75818,1.7583ZM212.97341,66.99174c0-.64116-.52158-1.16274-1.16262-1.16274h-10.07531c-.64116,0-1.16274.52158-1.16274,1.16274s.52158,1.16274,1.16274,1.16274h10.07531c.64104,0,1.16262-.52158,1.16262-1.16274ZM201.70977,58.27609c0-2.79192,2.27139-5.06342,5.0633-5.06342s5.06342,2.2715,5.06342,5.06342-2.27139,5.06342-5.06342,5.06342-5.0633-2.2715-5.0633-5.06342ZM202.30533,58.27609c0,2.46366,2.0042,4.46786,4.46774,4.46786s4.46786-2.0042,4.46786-4.46786-2.00431-4.46786-4.46786-4.46786-4.46774,2.0042-4.46774,4.46786ZM209.35154,61.28646h-5.15683v-.29778c0-.88206.44556-1.66134,1.1229-2.12645-.39299-.38089-.63854-.91311-.63854-1.50228,0-1.15483.9394-2.09423,2.094-2.09423,1.15471,0,2.09411.9394,2.09411,2.09423,0,.58916-.24555,1.12139-.63854,1.50228.67733.46511,1.1229,1.24445,1.1229,2.12645v.29778ZM208.73365,60.6909c-.09556-.6322-.49174-1.16599-1.03676-1.45458-.27911.13796-.59195.21764-.92382.21764-.3318,0-.64465-.07968-.9237-.21764-.54508.28859-.94121.82238-1.03676,1.45458h3.92104ZM205.89125,58.56875c.11312.08276.23805.1497.37199.19844.15948.05793.33064.0912.50983.0912.17925,0,.35041-.03327.50983-.0912.134-.04874.25893-.11568.37211-.19844.37292-.27277.61661-.71235.61661-1.2088,0-.82634-.67221-1.49867-1.49855-1.49867-.82622,0-1.49844.67233-1.49844,1.49867,0,.49645.24369.93597.61661,1.2088ZM55.4872,35.31866v-18.36069l3.01293-1.71933V6.23488h20.77968v9.00324l3.01293,1.71985v6.14217h27.31467c.14784-1.23381,1.19915-2.1938,2.47204-2.1938,1.37386,0,2.49158,1.1176,2.49158,2.49158s-1.11772,2.49158-2.49158,2.49158c-1.27289,0-2.32419-.95999-2.47204-2.1938h-27.31467v11.62295c0,.16448-.1333.29778-.29778.29778h-26.20997c-.16448,0-.29778-.1333-.29778-.29778ZM110.18342,23.39793c0,1.04549.85053,1.89602,1.89602,1.89602s1.89602-.85053,1.89602-1.89602-.85053-1.89602-1.89602-1.89602-1.89602.85053-1.89602,1.89602ZM56.3443,17.15444l2.15582,1.4839v-2.7141l-2.15582,1.2302ZM59.09568,15.24156v3.8067l9.8304,6.76635,9.75816-6.75425V6.83044h-19.58856v8.41112ZM81.69717,29.80043v-12.10103l-2.41737,1.6749-.29778.20635-.29778.20635-9.26462,6.41913,4.76256,3.29652.43027.29778.43021.29778,1.97459,1.36676.43033.29784.43015.29772,3.81943,2.64367v-4.90377ZM81.10859,35.02088l-4.27698-2.96035-.43015-.29772-.43027-.29784-1.97465-1.36676-.43021-.29778-.43021-.29778-4.24615-2.93901-4.24615,2.93901-.43021.29778-.43021.29778-1.97465,1.36676-.43027.29784-.43015.29772-4.27698,2.96035h24.43725ZM81.43685,17.15508l-2.15704-1.23125v2.72428l2.15704-1.49303ZM56.08276,34.7042l3.81943-2.64367.43015-.29772.43033-.29784,1.97459-1.36676.43021-.29778.43027-.29778,4.76913-3.30105-9.27119-6.41716-.29784-.20618-.29772-.20606-2.41737-1.67321v11.80365s0,.29778,0,.29778v4.90377ZM76.06378,15.79571h-14.34775v-2.29686h14.34775v2.29686ZM62.31159,15.20015h13.15663v-1.10574h-13.15663v1.10574ZM63.94601,12.13092h-2.22998v-2.29686h14.34775v2.29686h-12.11778ZM62.31159,11.53536h13.15663v-1.10574h-13.15663v1.10574ZM76.06378,19.46026h-14.34775v-2.29686h14.34775v2.29686ZM75.46822,17.75896h-13.15663v1.10574h13.15663v-1.10574ZM163.51578,12.08532h1.97233l-.00012-4.23214v-.98389h3.44366l.00006.9344v.66774l.00017,3.6139h1.96l-.78696,1.08178-.2167.29784-.21659.29772-2.60749,3.58429-2.41719-3.58429-.20077-.29772-.20083-.29784-.72956-1.08178ZM166.08355,7.80474l.00012,4.87614h-1.44795l.32791.48622.20077.29784.20077.29772,1.71735,2.54672,1.85269-2.54672.21659-.29772.21665-.29784.35373-.48622h-1.38584l-.00023-4.48694v-.7291h-2.25254v.33989ZM163.63687,159.93975h-6.72366v-2.89126h6.72366v2.89126ZM163.04131,157.64406h-5.53254v1.70014h5.53254v-1.70014ZM161.19915,163.60314h-4.28594v-2.31803h4.28594v2.31803ZM160.60359,161.88067h-3.09482v1.12691h3.09482v-1.12691ZM162.09598,161.28511h4.28605v2.31803h-4.28605v-2.31803ZM162.69154,163.00758h3.09493v-1.12691h-3.09493v1.12691ZM171.56491,163.60314h-4.28605v-2.31803h4.28605v2.31803ZM170.96935,161.88067h-3.09493v1.12691h3.09493v-1.12691ZM176.74768,163.60314h-4.28594v-2.31803h4.28594v2.31803ZM176.15212,161.88067h-3.09482v1.12691h3.09482v-1.12691ZM250,75.76856v.59556h-1.20531c-.07101,1.93057-.82637,3.68863-2.03142,5.03853h.02024v56.835h-11.47639c-.14784,1.23381-1.19912,2.1938-2.47204,2.1938-1.37386,0-2.49158-1.1176-2.49158-2.49158s1.11772-2.49158,2.49158-2.49158c1.27292,0,2.32419.95999,2.47204,2.1938h10.88083v-55.65592c-1.35906,1.24282-3.14606,2.02345-5.11111,2.09568v1.20543h-.59556v-1.20543c-4.1875-.15366-7.56436-3.53026-7.71831-7.71773h-1.20485v-.59556h1.20485c.09003-2.45331,1.28615-4.62774,3.10409-6.03993l-.00474-33.65086-14.58976.01803c-.14778,1.23387-1.19915,2.19392-2.4721,2.19392-1.37386,0-2.49158-1.1176-2.49158-2.49158s1.11772-2.49158,2.49158-2.49158c1.27289,0,2.32411.95987,2.47204,2.19368l15.18537-.01896.00468,33.82674c1.16893-.74922,2.5432-1.20351,4.01872-1.25765v-1.20496h.59556v1.20496c4.18753.15395,7.56431,3.53078,7.71785,7.7182h1.20531ZM220.69649,35.79814c0-1.04549-.85053-1.89602-1.89602-1.89602s-1.89602.85053-1.89602,1.89602.85053,1.89602,1.89602,1.89602,1.89602-.85053,1.89602-1.89602ZM234.73111,137.93987c0-1.04549-.85053-1.89602-1.89602-1.89602s-1.89602.85053-1.89602,1.89602.85053,1.89602,1.89602,1.89602,1.89602-.85053,1.89602-1.89602ZM246.37197,76.36412v-.59556h1.82716c-.15284-3.85916-3.26307-6.96939-7.12229-7.12264v1.82774h-.59556v-1.82774c-3.85933.15296-6.96979,3.26342-7.12275,7.12264h1.82774v.59556h-1.82774c.15325,3.85904,3.2636,6.96921,7.12275,7.12217v-1.82704h.59556v1.82704c3.85892-.15319,6.96898-3.26319,7.12229-7.12217h-1.82716ZM243.85294,78.38158l.52426.99035-.52623.2787-.45074-.85123-.20327-.1297c-.07325.07072-.15221.13563-.23415.1971l.19234.15081.42573,1.03641-.55089.22613-.36594-.89078-.26178-.20525c-.14941.05956-.30662.10568-.47081.13569l-.29289.05351-.10591-.57927c-.26221.10387-.54697.16285-.84571.16285-.23398,0-.45973-.03559-.67268-.10073l-.09457.51716-.29289-.05351c-.16317-.02978-.32087-.07532-.47162-.13516l-.26108.20472-.36594.89078-.55089-.22613.42573-1.03641.191-.1497c-.08163-.06113-.16081-.12568-.23459-.19699l-.20138.12848-.45074.85123-.52623-.2787.52426-.99035.27879-.17774c-.32954-.52391-.45199-1.14157-.33997-1.75411.11821-.64657.48133-1.18658.97465-1.54624l-.39014-.34954-.47866-1.50798.56764-.18006.42957,1.35304.42506.38095c.07767-.03059.15689-.05711.2377-.07974-.08343-.18652-.13083-.39252-.13083-.60969,0-.49552.24264-.93452.61423-1.20781l-.3218-.59539.52391-.28336.33936.62795c.11074-.02617.22563-.04147.34425-.04147.11865,0,.23351.0153.34431.04147l.33942-.62795.52391.28336-.32183.59539c.37161.27329.61426.71223.61426,1.20781,0,.21729-.04746.42335-.13095.60998.08076.02262.15991.04909.23756.07968l.42532-.38118.42957-1.35304.56764.18006-.47866,1.50798-.39043.34977c.49337.35966.8567.89962.97494,1.54601.11533.63092-.02379,1.2491-.34088,1.75353l.27969.17832ZM242.47257,78.48249c.63397-.39415.99791-1.14791.85577-1.92574-.08616-.47075-.34413-.86449-.69589-1.13563-.04909-.0378-.10015-.07287-.1527-.10574-.06331-.03967-.12877-.0759-.19646-.10795-.11164-.05281-.22819-.09585-.34911-.12644-.05833-.01471-.11763-.02617-.17753-.03536-.06049.05211-.12531.09899-.19364.1411-.02518.01559-.05013.03152-.07631.0456l.46848,2.56172.06499.35547.06101.33361.03184.17413c.10829-.03833.21124-.08631.30842-.14238.01751-.01012.03397-.02175.05112-.0324ZM240.68694,78.36134c.26361,0,.51251-.06177.7357-.16878l-.51004-2.78901c-.04409.0039-.08846.00675-.13354.00675-.04502,0-.08939-.00285-.13342-.00675l-.52303,2.86008c.17698.06217.36635.09771.56433.09771ZM239.51443,78.2787l.06057-.33116.49654-2.71521c-.05612-.03019-.10952-.06456-.1611-.10143-.03839-.02739-.0754-.05642-.111-.08724-.16416.02419-.32264.06979-.47214.13482-.01387.00605-.02829.01105-.04202.01745-.07285.03379-.14249.07357-.21031.11626-.2081.13115-.3906.30179-.53414.50512-.15157.21473-.26059.46435-.31092.73945-.14214.77783.22182,1.53165.85583,1.9258.01722.01064.03367.02228.05127.03245.0971.05601.20001.10399.30822.14226l.01093-.0599.05828-.31866ZM240.03944,74.42786c.0027.0039.00622.0071.00901.01093.07081.09759.16052.17937.26384.24224.12981.07892.27987.12661.44149.13115.00858.00023.0166.00256.02527.00256.00869,0,.01675-.00233.02539-.00256.13932-.00395.26937-.04083.38618-.10114.10792-.05572.20225-.13179.27952-.22421.01634-.01954.03394-.03798.04862-.05886.10315-.14691.1648-.32482.1648-.51751,0-.49878-.40573-.90451-.90451-.90451-.49866,0-.90439.40573-.90439.90451,0,.19263.06165.37054.16477.51739ZM227.59835,126.84315h-5.01776l-.00785,41.66219h-25.59231c-.14784,1.23381-1.19915,2.1938-2.47204,2.1938-1.37386,0-2.49158-1.1176-2.49158-2.49158s1.11772-2.49158,2.49158-2.49158c1.27289,0,2.32419.95999,2.47204,2.1938h24.99675l.00785-41.06663h-20.2542c-.03106,0-.06095-.00686-.0898-.01652-.00157-.00047-.00337-.00035-.00489-.00087-.00634-.00215-.0125-.0039-.01861-.00646-.00326-.00128-.00651-.00198-.00965-.00343-.02478-.01128-.04769-.02588-.06863-.04356-.00395-.00337-.00721-.0075-.01099-.01105-.00308-.00285-.00593-.00587-.0089-.00884-.00244-.00256-.00599-.00343-.00838-.00605-.00157-.00174-.00198-.00413-.00349-.00587-.00308-.00355-.00692-.00622-.00989-.00995-.00808-.01012-.01373-.02164-.02036-.03257-.00314-.00523-.00686-.01012-.00965-.01553-.0057-.01099-.00995-.02239-.01425-.03397-.00204-.00547-.00401-.01093-.0057-.01646-.00384-.01256-.00704-.02513-.00925-.03809-.00047-.00279-.00215-.005-.00256-.00785l-3.31676-24.0855c-.01175-.08538.01396-.17146.07049-.23636s.13842-.10213.2245-.10213h17.88051c.13982,0,.26091.09724.29092.23404l.6518,2.97082h8.92688c.58861-3.76436,3.85288-6.65375,7.77979-6.65375,4.34212,0,7.87476,3.53265,7.87476,7.87488,0,4.11128-3.1674,7.49469-7.18975,7.84324l-2.58103,12.17571c-.02908.13772-.15063.23613-.29127.23613h-4.15833ZM196.4044,168.20756c0-1.04549-.85053-1.89602-1.89602-1.89602s-1.89602.85053-1.89602,1.89602.85053,1.89602,1.89602,1.89602,1.89602-.85053,1.89602-1.89602ZM227.35605,126.24759h4.15938l2.49847-11.78638c-.02341.00017-.0465.00174-.06994.00174-1.20775,0-2.35246-.27405-3.37631-.76201-.093-.04432-.1844-.09131-.27533-.13912-.09213-.04839-.18288-.09887-.27283-.15081-2.35851-1.36194-3.95041-3.90923-3.95041-6.82294,0-.21077.01079-.41893.0271-.62557h-19.25961l-4.73051,20.28509h25.24998ZM198.7557,102.75765l2.91312,21.15412,1.64442-18.27379c.01384-.15354.14249-.27103.29662-.27103h13.01769l-.57247-2.6093h-17.29938ZM203.88205,105.96251l-1.47221,16.35986,3.81513-16.35986h-2.34292ZM226.72525,105.66473c-.01256.09876-.02338.19786-.03193.29778-.01765.20641-.02867.41468-.02867.62557,0,2.62337,1.39532,4.92657,3.48248,6.20784.0891.05473.1798.10696.27135.1579.09021.05013.18175.09794.27422.1443.97933.4911,2.08312.76928,3.25127.76928.06601,0,.13127-.00326.19687-.005.10306-.00273.20554-.00744.30749-.01442.10393-.00715.2074-.01582.31011-.02734,3.63163-.40636,6.46473-3.49426,6.46473-7.23256,0-4.01375-3.26546-7.27932-7.2792-7.27932-3.59761,0-6.5921,2.62401-7.17487,6.05819-.01675.09858-.03112.19792-.04385.29778ZM232.32174,105.36695l-.34579-3.69038c-.00779-.08329.01989-.16611.07631-.22822.05642-.06188.13644-.09724.22019-.09724h3.34304c.08375,0,.16378.03536.22019.09724.05642.06212.0841.14494.07631.22822l-.34579,3.69038-.02789.29778-.02792.29778-.12289,1.31163c-.01431.15308-.14284.2701-.2965.2701h-2.29407c-.15366,0-.28219-.11702-.2965-.2701l-.12289-1.31163-.02792-.29778-.02789-.29778ZM232.59942,101.94667l.32046,3.42028.02792.29778.02786.29778.09242.98616h1.75178l.09242-.98616.02786-.29778.02792-.29778.32046-3.42028h-2.68909ZM235.35493,109.57134c.10073.20711.15889.43853.15889.68385,0,.00087-.00012.00174-.00012.00268-.00041.22333-.04833.43544-.13313.6279-.0971.22031-.24311.4141-.42463.56764-.10614.0898-.22461.16483-.35199.22421-.20094.09364-.42405.14744-.66.14744-.86566,0-1.56986-.7042-1.56986-1.56986s.7042-1.57009,1.56986-1.57009c.47057,0,.89229.20914,1.18024.53821.09166.10475.16919.22165.23072.34803ZM234.81468,110.68354c.06421-.12987.10358-.27399.10358-.42835,0-.01396-.00355-.02699-.00413-.04083-.02193-.51809-.44684-.9337-.97017-.9337-.53728,0-.9743.43713-.9743.97453,0,.53717.43702.9743.9743.9743.38287,0,.71153-.22397.87072-.54595ZM131.88569,178.4901l.00518.00622-.21415.19123c-.88479.79075-1.96035,1.31506-3.10872,1.52781-.1914.03542-.38485.06223-.57968.0802-.19495.01791-.3913.02699-.58858.02699-1.57788,0-3.09621-.58137-4.27535-1.63686l-.21891-.19612.00721-.00832c-.825-.80674-1.40887-1.80291-1.70648-2.91179l-.01076.00233-.06398-.28871v-.00006c-.00006-.00017-.00012-.00029-.00012-.00041-.03333-.15034-.05956-.30243-.08171-.45516-.00192-.01326-.00523-.02617-.00704-.03937-.02303-.16616-.03955-.33337-.04973-.50099-.00779-.12848-.01262-.25718-.01262-.38589,0-2.71445,1.72038-5.14694,4.28093-6.05284l.273-.09655.00413.01064c.59922-.18373,1.22322-.2826,1.86141-.2826,3.54079,0,6.42134,2.88055,6.42134,6.42134,0,1.72555-.70263,3.38155-1.93539,4.58889ZM125.75294,168.319l.60527,1.56945c.33378-.08677.68181-.13778,1.04235-.13778.39921,0,.78411.05979,1.14971.16547l.59102-1.57457c-.55019-.17274-1.13511-.26614-1.74155-.26614-.56421,0-1.11586.08503-1.6468.24357ZM129.69405,168.56397l-.58515,1.55881c1.43813.65291,2.44267,2.09935,2.44267,3.7789,0,.18635-.01663.36839-.04054.54828l1.6161.3325c.39851-2.58952-1.02978-5.17672-3.43308-6.21848ZM130.92762,174.32996c.01698-.14069.02838-.28307.02838-.42829,0-1.42469-.84425-2.65292-2.05701-3.21969-.0898-.04199-.18152-.07985-.27521-.11434-.09294-.03426-.18739-.06485-.28376-.09137-.29982-.08235-.61388-.13005-.93946-.13005-.2851,0-.56101.03734-.8268.10102-.09753.02332-.19391.04944-.28813.08067-.09463.03135-.18826.06479-.27917.10376-1.26934.54327-2.16123,1.80419-2.16123,3.26999,0,.16523.0153.32663.03722.48599.01361.09905.02989.1971.05159.29342.02187.09742.04583.19414.07555.28842.16058.50867.43492.96592.78964,1.34769.06776.07299.13854.14272.21217.20984.0734.06688.1493.13074.2281.1914.59969.46127,1.34774.73869,2.16106.73869.83466,0,1.6015-.29103,2.20881-.7744.07782-.06188.15209-.1276.22438-.19571.07276-.06851.14209-.14017.20891-.21455.34751-.38688.61272-.84821.76475-1.35926.02821-.09486.05403-.19071.07439-.28865.02001-.0966.03385-.1953.04583-.29458ZM123.15598,169.91991c-.05438.05804-.10684.1176-.15872.17768-.04275.04955-.08544.0991-.1265.15005-.04984.06182-.09742.12522-.1447.18896-.03891.05252-.07799.1048-.1151.15854-.04525.06549-.08788.13261-.13039.1999-.03478.05502-.07008.10975-.10306.16593-.04048.06898-.07793.13964-.11551.21031-.03048.05717-.06177.11388-.09026.1721-.03559.07253-.06781.14668-.10038.22072-.02588.05886-.05293.11719-.07689.17698-.03059.07625-.05735.15407-.08468.23171-.02105.05973-.04368.11882-.06281.17931-.02547.08055-.04664.16273-.06863.24462-.01605.05956-.03397.11841-.0481.17861-.0203.08631-.03565.17402-.052.26155-.01076.05746-.02385.11417-.03286.1721-.01524.09783-.02489.19705-.03513.29609-.005.04891-.01285.09713-.01663.14627-.01157.14883-.0178.29883-.0178.44987,0,.14331.00733.2865.01791.42945.00256.03437.00529.06863.00843.10294.01309.14145.02978.28266.05316.42271.00041.00256.00052.00523.00099.00779l.00052-.00012,1.64291-.35164c-.02972-.19984-.05008-.4027-.05008-.61068,0-1.71875,1.05002-3.1966,2.54224-3.8263l-.60097-1.55817-.00151-.00395c-.02722.01117-.05287.02478-.0798.03635-.06392.02739-.12667.05665-.18925.08619-.07253.0342-.14453.06909-.21525.10608-.06043.03158-.11975.06467-.17884.09829-.06956.03961-.13836.08009-.206.12231-.05694.03559-.11301.07229-.16855.10975-.06636.04473-.13167.09061-.19594.1379-.05339.03932-.10614.07939-.15802.12039-.0627.04955-.12406.10033-.18454.15226-.05002.04298-.09951.08643-.14802.13098-.05857.05391-.11551.10917-.17175.16529-.04647.04635-.09265.093-.13749.14086ZM121.78875,175.44483c.26946.98279.78737,1.86682,1.51559,2.58725l1.10149-1.26359c-.44789-.46778-.78848-1.03833-.97965-1.67414l-1.63744.35047ZM126.88363,179.70326c.17099.01524.34309.02373.51611.02373.17332,0,.3457-.00849.51699-.02373.05624-.005.11161-.01501.16762-.02164.1144-.01355.22874-.02704.34169-.04728.06642-.01192.13167-.02861.19757-.04286.10108-.02175.20211-.0431.30168-.0702.06927-.01884.13726-.04193.20577-.06334.09416-.02943.18821-.0588.28068-.09294.06956-.02571.13778-.05484.20635-.08317.08887-.03676.17739-.07398.26445-.11516.06857-.0324.1358-.06758.20315-.10271.08404-.04379.16738-.08869.24939-.13668.06654-.03897.13191-.07991.19699-.12155.07939-.05083.15767-.10323.23479-.15802.06374-.04531.12656-.09189.18861-.13982.03478-.02687.07148-.05066.10568-.07834l-.00384-.00465-1.06735-1.28423c-.71066.56927-1.61022.91201-2.5894.91201-.9629,0-1.84792-.3325-2.55288-.88473l-1.0983,1.25986-.00395.00454c.0335.0271.06944.05037.10347.07666.06148.04752.12382.09364.18698.13854.07724.0549.15558.1076.23514.15854.06508.0417.13063.08259.19716.12161.08142.04763.16407.0923.24753.13592.06799.03548.13592.0709.20513.10364.08596.04065.17326.07747.26102.11382.0695.02879.13871.05833.20926.08439.0912.03367.18384.06264.27661.09172.06962.02181.13871.04519.20914.06433.09835.02681.19815.04792.29801.0695.06671.01442.13284.03129.20019.04339.1119.02007.22514.03338.33843.04694.05682.00675.11301.01681.17012.02193ZM131.50451,178.03145c.743-.73985,1.26783-1.66134,1.52996-2.66007l-1.64366-.33814c-.1832.64476-.51815,1.22468-.96441,1.70107l1.07811,1.29715ZM129.95332,173.90167c0,.07613-.00489.15104-.0114.22549-.00884.10009-.02228.19885-.04234.29528-.02047.09829-.04816.19379-.07956.2876-.09608.28667-.24102.55066-.42602.78202-.06275.07852-.12929.15378-.20071.22432-.07061.06979-.14633.13418-.22461.19542-.43329.33872-.9768.54263-1.56811.54263-.56148,0-1.07945-.18437-1.5014-.49273-.08032-.05874-.15697-.12196-.22985-.18949-.07317-.06776-.14302-.13889-.20781-.21467-.20007-.23392-.35716-.50442-.46278-.79976-.03333-.09329-.06206-.18856-.08451-.2865-.02198-.09608-.03996-.19373-.05077-.29365-.00977-.09073-.01553-.18268-.01553-.27597,0-1.04002.62592-1.93516,1.52007-2.33257.09038-.04019.18274-.07666.27824-.10626.09498-.02943.19292-.05165.29225-.06991.15011-.02757.30412-.04403.46208-.04403.20176,0,.39712.026.5855.07043.09765.02303.1928.05205.28574.08596.09399.03426.18541.0734.27388.11807.83343.42061,1.40765,1.28261,1.40765,2.27831ZM129.35776,173.90167c0-.74073-.41369-1.38654-1.02211-1.71886-.08689-.04746-.17867-.08654-.27289-.12057-.09306-.03362-.18867-.06159-.28766-.0809-.12132-.02361-.24637-.03687-.37455-.03687-.08241,0-.16314.00675-.24293.01675-.10126.01256-.20001.03292-.29592.06043-.09637.02768-.18931.06275-.27899.10428-.67128.31052-1.13924.98872-1.13924,1.77574,0,.05072.00378.10044.00762.15017.00768.10068.02297.19902.04542.29487.02292.09812.05263.1935.08974.28533.06869.17006.16087.32773.27207.47028.06159.07898.12906.1529.20182.22159.07229.06811.14895.13156.2309.18821.31563.21816.69769.34675,1.10952.34675.44679,0,.85769-.15215,1.18751-.40503.07898-.0606.15348-.12644.2224-.19809.07002-.07293.13452-.15098.19268-.23398.09335-.13313.16948-.27853.2277-.43294.0349-.09265.06467-.18774.08532-.28644.02012-.09626.03094-.19565.03629-.2965.00186-.03472.00529-.06904.00529-.10422ZM118.00223,167.17161c0-.17308.14075-.31383.31372-.31383h4.49741v-.59556h-4.49741c-.50134,0-.90928.40805-.90928.90939v2.14355h.59556v-2.14355ZM136.48552,166.26222h-4.49752v.59556h4.49752c.17297,0,.31372.14075.31372.31383v2.14355h.59556v-2.14355c0-.50134-.40794-.90939-.90928-.90939ZM118.00223,180.63103v-2.14355h-.59556v2.14355c0,.50134.40794.90939.90928.90939h4.49741v-.59556h-4.49741c-.17297,0-.31372-.14075-.31372-.31383ZM136.79923,180.63103c0,.17308-.14075.31383-.31372.31383h-4.49752v.59556h4.49752c.50134,0,.90928-.40805.90928-.90939v-2.14355h-.59556v2.14355ZM192.43172,149.45971h4.45571v-4.45571h-4.45571v4.45571ZM196.88742,138.65577h-4.45571v4.45565h4.45571v-4.45565ZM203.46487,138.65577h-4.45571v4.45565h4.45571v-4.45565ZM204.52576,137.59487h2.98745v-2.98745h-2.98745v2.98745ZM205.14959,153.21941h4.49799v-4.49799h-4.49799v4.49799ZM198.47874,147.99145h2.98745v-2.98745h-2.98745v2.98745ZM229.186,28.11763h4.45571v-4.45571h-4.45571v4.45571ZM236.02715,17.08448h-4.45568v4.45571h4.45568v-4.45571ZM240.0755,13.03618h-2.98745v2.98745h2.98745v-2.98745ZM229.67888,19.08315h-2.98745v2.98745h2.98745v-2.98745ZM172.87078,39.26663h4.45571v-4.45571h-4.45571v4.45571ZM183.90393,37.19642h-4.45571v4.45565h4.45571v-4.45565ZM181.90526,32.31638h-2.98745v2.98739h2.98745v-2.98739ZM104.0445,15.08144h4.45565v-4.45571h-4.45565v4.45571ZM106.11471,4.04829h-4.45571v4.45571h4.45571v-4.45571ZM100.59817,0h-2.98745v2.98745h2.98745V0ZM110.99475,6.04702h-2.98745v2.98745h2.98745v-2.98745ZM12.43964,108.08582h-4.45565v4.45565h4.45565v-4.45565ZM10.0542,101.50837h-4.45571v4.45571h4.45571v-4.45571ZM1.5502,100.44753h2.98745v-2.98745H1.5502v2.98745ZM14.93424,103.50704h-2.98745v2.98745h2.98745v-2.98745ZM49.29419,157.53408h4.45571v-4.45565h-4.45571v4.45565ZM53.7499,146.73014h-4.45571v4.45571h4.45571v-4.45571ZM42.71675,151.18584h4.45571v-4.45571h-4.45571v4.45571ZM41.65591,142.68178h-2.98745v2.98745h2.98745v-2.98745ZM36.53409,161.29378h4.49793v-4.49793h-4.49793v4.49793ZM44.71548,156.06582h2.98739v-2.98739h-2.98739v2.98739ZM21.07211,130.77617c0,1.00408-.8168,1.82088-1.82088,1.82088s-1.82088-.8168-1.82088-1.82088.8168-1.82088,1.82088-1.82088,1.82088.8168,1.82088,1.82088ZM20.47655,130.77617c0-.67559-.54973-1.22532-1.22532-1.22532s-1.22532.54973-1.22532,1.22532.54973,1.22532,1.22532,1.22532,1.22532-.54973,1.22532-1.22532ZM34.67844,17.52423h-4.45565v4.45565h4.45565v-4.45565ZM32.293,24.10167h-4.45571v4.45565h4.45571v-4.45565ZM26.77645,29.61822h-2.98745v2.98739h2.98745v-2.98739ZM34.18559,26.55865h2.98745v-2.98745h-2.98745v2.98745ZM102.4608,59.54759c-.1365-2.45354-.20403-5.04626-.20403-7.79357v-.29778h7.85929c1.59161,0,3.15251-.64023,4.39528-1.8025,3.57801-3.3463,16.05522-3.3463,19.63323,0,1.24265,1.16227,2.80367,1.8025,4.39528,1.8025h7.92292v.29778c0,2.76575-.06171,5.35521-.18611,7.79334-.00506.09899-.0096.1992-.01489.29766-.00529.09969-.01093.19862-.01646.29778-.10382,1.85798-.24584,3.62541-.42695,5.31211-.0107.09969-.02175.19867-.03274.29778s-.02152.1992-.03274.29778c-.71426,6.25628-1.98373,11.38764-3.88277,15.87399-3.39015,8.00888-8.90571,14.05591-17.358,19.03022l-.15029.0884-.15063-.08771c-8.29724-4.83683-13.996-11.23235-17.42198-19.55157-1.80215-4.37608-3.04218-9.40368-3.76401-15.35334-.0121-.09951-.02483-.19774-.03664-.29778-.01157-.09858-.02233-.19867-.03367-.29778-.19373-1.69432-.34617-3.46338-.45859-5.31211-.00605-.09934-.01233-.19804-.01815-.29778-.00582-.09916-.01175-.19786-.01733-.29743ZM114.91823,50.08878c-1.3535,1.2658-3.05899,1.96302-4.80216,1.96302h-7.2635c.00471,2.63902.07293,5.13234.20507,7.49579.00558.09899.01059.19891.0164.29743.00582.09998.01256.19821.01861.29778.11306,1.84996.26661,3.61872.46156,5.31211.0114.09899.02204.19931.03373.29778.01186.10004.02478.19827.03693.29778.71636,5.86341,1.94051,10.81749,3.71509,15.12652,3.35351,8.14358,8.92223,14.41766,17.02044,19.17562,8.25129-4.88917,13.64367-10.82267,16.96124-18.66033,1.86979-4.41714,3.12279-9.4751,3.83171-15.64182.01134-.09864.0221-.19856.03315-.29778s.02239-.19798.03315-.29778c.18222-1.68583.32541-3.45262.4298-5.31211.00547-.09847.01024-.19885.01559-.29778.00523-.09876.01018-.19844.0153-.29766.12039-2.34885.18239-4.83962.18664-7.49556h-7.32713c-1.74318,0-3.44866-.69722-4.80216-1.96302-3.34165-3.12576-15.4778-3.12576-18.81945,0ZM124.65761,26.35014h-.59556v6.22639h.59556v-6.22639ZM124.06205,114.34361h.59556v-6.22639h-.59556v6.22639ZM164.77646,69.81041h-6.22627v.59556h6.22627v-.59556ZM155.25961,39.02579l-4.4026,4.40272.42108.42108,4.4026-4.40272-.42108-.42108ZM97.44147,43.84959l.42108-.42108-4.4026-4.40249-.42108.42108,4.4026,4.40249ZM152.1007,101.00796l-4.40272-4.40272-.42108.42108,4.40272,4.40272.42108-.42108ZM106.97089,29.93118l2.42202,5.73598.54857-.23171-2.42202-5.73598-.54857.23171ZM138.77807,105.2583l2.42202,5.73598.54857-.23171-2.42202-5.73598-.54857.23171ZM164.77553,52.95793l-5.73598,2.42202.23171.54857,5.73598-2.42202-.23171-.54857ZM107.52562,110.99661l.55182.22427,2.34327-5.76855-.55182-.22427-2.34327,5.76855ZM141.19405,29.69691l-.55182-.22427-2.34339,5.76855.55182.22427,2.34339-5.76855ZM89.25438,56.40776l.22403-.55182-5.76855-2.34339-.22403.55182,5.76855,2.34339ZM161.65373,86.39046l-5.76855-2.34315-.22403.55182,5.76855,2.34315.22403-.55182ZM113.57322,76.63864c0-2.93063,1.1764-5.59058,3.07981-7.53656v-7.32963c0-.55915.06136-1.104.17495-1.62965.02164-.0998.04374-.19949.06915-.29778.02588-.10015.0549-.19902.08462-.29755.9572-3.16804,3.90185-5.48194,7.37796-5.48194s6.42082,2.31384,7.37802,5.48194c.02978.09852.0588.1974.08468.29755.02542.09835.04752.19798.06909.29778.11364.52565.175,1.0705.175,1.62965v7.32963c1.90341,1.94598,3.07981,4.60593,3.07981,7.53656,0,5.94769-4.83881,10.78661-10.78649,10.78661s-10.78661-4.83892-10.78661-10.78661ZM114.16878,76.63864c0,5.61943,4.57173,10.19105,10.19105,10.19105s10.19093-4.57162,10.19093-10.19105c0-2.54299-.93836-4.86951-2.48425-6.65677-.09695-.11207-.19612-.22206-.29778-.32977-.0973-.10312-.19629-.20455-.29778-.3036-.61155-.59666-1.29767-1.11644-2.04282-1.54555-.09847-.05665-.19728-.11271-.29778-.16616-.09841-.0524-.19751-.10358-.29778-.15273-1.35118-.66285-2.86892-1.03647-4.47275-1.03647s-3.12163.37362-4.47286,1.03653c-.10027.0492-.19937.10033-.29778.15273-.1005.05345-.19931.10946-.29778.16616-.74515.42916-1.43126.94888-2.04282,1.54555-.10149.09905-.20048.20048-.29778.3036-.10166.10777-.20083.21769-.29778.32983-1.54584,1.78726-2.48425,4.11367-2.48425,6.65666ZM117.24859,68.53827c.6222-.54688,1.30663-1.02414,2.04282-1.41777v-6.08715c0-.30528.03263-.60295.09306-.89055.02117-.10097.04862-.19955.07671-.29778.02891-.10102.06252-.19972.09847-.29755.60812-1.6564,2.19642-2.84356,4.06097-2.84356h1.47831c1.86456,0,3.45285,1.18711,4.06097,2.84356.03594.09783.06956.19652.09847.29755.02809.09823.05554.19681.07671.29778.06043.2876.09306.58527.09306.89055v6.08715c.73619.39363,1.42062.87083,2.04282,1.41771v-6.76577c0-.56084-.06729-1.10591-.19059-1.62965-.02361-.10009-.04926-.19937-.07706-.29778-.02821-.10009-.05833-.19931-.09079-.29755-.93632-2.83443-3.60866-4.88638-6.7528-4.88638s-5.81636,2.05195-6.75268,4.88638c-.03245.09829-.06258.19745-.09079.29755-.0278.09841-.05345.19769-.07706.29778-.1233.52373-.19059,1.06881-.19059,1.62965v6.76583ZM126.41312,66.05047c.84588.16378,1.65605.42713,2.41946.77655v-5.79368c0-.30738-.04141-.60457-.11178-.89055-.02483-.10085-.05258-.2003-.08538-.29778-.03408-.10097-.07084-.20065-.11306-.29755-.57567-1.32128-1.8927-2.24801-3.42342-2.24801h-1.47831c-1.53072,0-2.84781.92678-3.42342,2.24801-.04222.09689-.07898.19658-.11306.29755-.0328.09742-.06054.19693-.08538.29778-.07037.28597-.11178.58317-.11178.89055v5.79368c.76341-.34943,1.57364-.61278,2.41952-.77655.66518-.12877,1.35112-.19844,2.05334-.19844s1.38817.06968,2.05328.19844ZM121.40088,74.05656c-.05618-.23299-.08782-.474-.08782-.72095,0-.47406.11196-.92137.30598-1.32186.04967-.10259.1044-.20205.16488-.29784.06514-.10323.13452-.20333.21124-.29772.55904-.68815,1.41096-1.12924,2.36456-1.12924.95371,0,1.80564.44109,2.36467,1.12924.07671.09439.1461.19449.21124.29772.06049.09579.11522.19524.16488.29784.19402.40049.30598.8478.30598,1.32186,0,.24695-.03164.48796-.08782.72095-.02431.10102-.05316.20042-.08753.29778-.03583.10155-.07689.20089-.12336.29778-.18117.37804-.43969.71886-.76864.99942l.95487,7.11322h-5.86847l.95487-7.11322c-.32895-.28056-.58748-.62138-.76864-.99942-.04647-.09689-.08753-.19623-.12336-.29778-.03437-.09736-.06322-.19676-.08753-.29778ZM122.29881,72.01375c-.24578.38188-.3902.83495-.3902,1.32186,0,.24916.04048.49058.11097.72095.03117.1019.06816.20129.11225.29778.04688.10254.09881.20257.15965.29778.15383.24067.35047.45632.58654.63581l.13796.10492-.90951,6.77635h4.5066l-.90951-6.77635.13796-.10492c.23607-.17948.43271-.39514.58654-.63581.06084-.09521.11277-.19524.15965-.29778.04409-.09649.08108-.19588.11225-.29778.07049-.23037.11097-.47179.11097-.72095,0-.48692-.14441-.93998-.3902-1.32186-.06776-.10527-.14348-.20443-.22607-.29784-.0955-.108-.19943-.20792-.31232-.29772-.41864-.33314-.94725-.53368-1.52263-.53368-.57532,0-1.10388.20054-1.52252.53368-.11289.0898-.21688.18972-.31232.29772-.08259.09341-.15831.19257-.22607.29784ZM72.37597,156.56298c0-.71281.57997-1.29278,1.29278-1.29278s1.29278.57974,1.29278,1.29255-.57997,1.29278-1.29278,1.29278-1.29278-.57974-1.29278-1.29255ZM72.97153,156.56298c0,.38432.31279.69699.69722.69699s.69722-.31267.69722-.69722c0-.38432-.31279-.69699-.69722-.69699s-.69722.31267-.69722.69722ZM75.75379,156.56298c0-.71281.57997-1.29278,1.29278-1.29278s1.29267.57974,1.29267,1.29255-.57986,1.29278-1.29267,1.29278-1.29278-.57974-1.29278-1.29255ZM76.34935,156.56298c0,.38432.31279.69699.69722.69699s.69711-.31267.69711-.69722c0-.38432-.31267-.69699-.69711-.69699s-.69722.31267-.69722.69722ZM84.92587,155.41536h-.59556v2.295h.59556v-2.295ZM86.72081,155.41536h-.59556v2.295h.59556v-2.295ZM88.51575,155.41536h-.59556v2.295h.59556v-2.295ZM90.31069,155.41536h-.59556v2.295h.59556v-2.295ZM72.37597,163.17159c0-.71281.57997-1.29255,1.29278-1.29255s1.29278.57974,1.29278,1.29255-.57997,1.29255-1.29278,1.29255-1.29278-.57974-1.29278-1.29255ZM72.97153,163.17159c0,.38432.31279.69699.69722.69699s.69722-.31267.69722-.69699-.31279-.69699-.69722-.69699-.69722.31267-.69722.69699ZM75.75379,163.17159c0-.71281.57997-1.29255,1.29278-1.29255s1.29267.57974,1.29267,1.29255-.57986,1.29255-1.29267,1.29255-1.29278-.57974-1.29278-1.29255ZM76.34935,163.17159c0,.38432.31279.69699.69722.69699s.69711-.31267.69711-.69699-.31267-.69699-.69711-.69699-.69722.31267-.69722.69699ZM84.92587,162.02398h-.59556v2.29523h.59556v-2.29523ZM86.72081,162.02398h-.59556v2.29523h.59556v-2.29523ZM88.51575,162.02398h-.59556v2.29523h.59556v-2.29523ZM90.31069,162.02398h-.59556v2.29523h.59556v-2.29523ZM74.96153,169.73136c0,.71281-.57997,1.29255-1.29278,1.29255s-1.29278-.57974-1.29278-1.29255.57997-1.29255,1.29278-1.29255,1.29278.57974,1.29278,1.29255ZM74.36597,169.73136c0-.38432-.31279-.69699-.69722-.69699s-.69722.31267-.69722.69699.31279.69699.69722.69699.69722-.31267.69722-.69699ZM78.33924,169.73136c0,.71281-.57986,1.29255-1.29267,1.29255s-1.29278-.57974-1.29278-1.29255.57997-1.29255,1.29278-1.29255,1.29267.57974,1.29267,1.29255ZM77.74368,169.73136c0-.38432-.31267-.69699-.69711-.69699s-.69722.31267-.69722.69699.31279.69699.69722.69699.69711-.31267.69711-.69699ZM84.33031,170.87897h.59556v-2.29523h-.59556v2.29523ZM86.12525,170.87897h.59556v-2.29523h-.59556v2.29523ZM87.92019,170.87897h.59556v-2.29523h-.59556v2.29523ZM89.71513,170.87897h.59556v-2.29523h-.59556v2.29523ZM189.7688,112.50761c0,1.37397-1.11772,2.49158-2.49158,2.49158s-2.49158-1.1176-2.49158-2.49158c0-1.27301.96005-2.32419,2.1938-2.47204v-14.45442h-9.28212v35.20386c-.02768.44574-.12946.77533-.28045,1.02059h8.52337l.00814.2894c.00744.26614.00558.51925.00372.76073l-.00151.29941c0,1.84344-.39572,3.55893-1.11435,4.83055-.88787,1.57125-2.2316,2.40178-3.88591,2.40178h-13.8221v9.80603h9.37855c.92882,0,1.68455.75492,1.68455,1.68292v12.24178c0,.92893-.75573,1.68455-1.68455,1.68455h-9.37855v9.18697h-27.9421v6.44019c0,1.04851-.85309,1.9016-1.90172,1.9016h-19.76735c-1.04863,0-1.90172-.85309-1.90172-1.9016v-11.27515h-22.49959v1.27813c0,.57532-.46807,1.04339-1.04339,1.04339h-21.45806c-.57532,0-1.04339-.46807-1.04339-1.04339v-3.55265c0-.57532.46807-1.04339,1.04339-1.04339h10.40345l.00198-.92033h-10.40543c-.57532,0-1.04339-.46807-1.04339-1.04339v-3.55265c0-.57532.46807-1.04339,1.04339-1.04339h10.41729l.00209-.96918h-10.41939c-.57532,0-1.04339-.46807-1.04339-1.04339v-3.55265c0-.57532.46807-1.04339,1.04339-1.04339h10.43125l.02803-13.28098h-12.87491c-1.6386,0-2.96873-.76469-3.84648-2.21171-.73538-1.21229-1.1404-2.90894-1.1404-4.77727,0-.16145-.00593-.3257-.01198-.4932-.00942-.26102-.01919-.53112-.00838-.81331l.01093-.28638h8.15544c-.21025-.2865-.33605-.6386-.33605-1.02036v-30.36354l-12.30017-.00093v19.37546h-11.93795v14.45698h-20.0774c-.23293,2.71794-1.98663,5.12402-4.53143,6.15939v5.49985l-1.03839.5474v6.35806l1.03839.54764v2.84589l-2.80122,2.76842-2.70596-2.77168v-15.79559c-2.73597-1.11318-4.55999-3.81019-4.55999-6.77635,0-4.03259,3.28093-7.31352,7.31364-7.31352s7.31352,3.28093,7.31352,7.31352c0,.00721-.00081.01419-.00081.0214h19.4541v-13.86142h-12.58329v-4.60814h-6.01352v-14.76988l-9.65539-.00093.0321-18.45165H4.96362c-.14784,1.23381-1.19915,2.1938-2.47204,2.1938-1.37386,0-2.49158-1.1176-2.49158-2.49158s1.11772-2.49158,2.49158-2.49158c1.27289,0,2.32419.95999,2.47204,2.1938h13.00542l.01943-11.15278h-8.18185v-28.68829h37.97577v22.3386h15.65915v-28.21138h.59556v28.21138h6.98468v-2.60185l.00105-.01233c.08468-1.03246.70955-1.65407,1.71433-1.70572l25.3353-.00012c-.13255-2.46512-.19897-5.05726-.19897-7.79357v-4.68119h12.24271c.47575,0,.97325-.22031,1.40084-.62045,1.42841-1.33605,3.47681-2.32896,6.08832-2.95058,2.01211-.47901,4.33677-.73235,6.72261-.73235s4.71039.25335,6.72273.73235c2.61151.62162,4.65979,1.61429,6.08809,2.95035.42783.40037.92544.62068,1.40108.62068h12.30622v4.68119c0,2.7533-.06008,5.34352-.18111,7.79334l17.7279-.00012V19.31044h-9.92433c-2.56288,0-4.66444-2.05677-4.68468-4.58511l-.00012-.05304c0-.30895.02734-.6115.0688-.90962h-4.48793v8.77404c1.23375.14784,2.1938,1.19903,2.1938,2.47204,0,1.37397-1.11772,2.49158-2.49158,2.49158-1.37374,0-2.49146-1.1176-2.49146-2.49158,0-1.27301.96005-2.32419,2.19368-2.47204v-8.77404h-9.23978v-.29778c0-.91719.19809-1.78691.55095-2.57138h-12.07398c-.14784,1.23381-1.19915,2.1938-2.47204,2.1938-1.37386,0-2.49158-1.1176-2.49158-2.49158s1.11772-2.49158,2.49158-2.49158c1.27289,0,2.32419.95999,2.47204,2.1938h12.37589v.0089c1.08434-1.85758,3.09389-3.10441,5.39051-3.10441.5424,0,1.07724.06909,1.59382.20542,1.30139-3.65711,4.74121-6.09378,8.64946-6.09378,2.65332,0,5.08988,1.12418,6.78886,2.98995,1.31785-.73642,2.82117-1.14907,4.38568-1.14907,3.46425,0,6.63909,2.00839,8.13265,5.12972.72043.13755,1.39102.39334,1.99931.73933h28.47613v4.93849h-.59556v-4.34293h-27.00956c1.47988,1.19845,2.40562,3.02357,2.40562,5.05272l-.00023.0549c-.02012,2.52648-2.12156,4.58325-4.68457,4.58325h-6.92582v40.2368h6.97852c.95417,0,1.73038.77632,1.73038,1.73038v33.70798h28.7197l.05659-12.28807h-14.79297v-34.99681h30.18499v34.99681h-14.79646l-.05938,12.88363h-19.43479v14.45442c1.23375.14784,2.1938,1.19903,2.1938,2.47204ZM221.27006,82.10197v-33.80569h-28.99387v33.80569h28.99387ZM127.43022,10.59573c0-1.04549-.85053-1.89602-1.89602-1.89602s-1.89602.85053-1.89602,1.89602.85053,1.89602,1.89602,1.89602,1.89602-.85053,1.89602-1.89602ZM149.06683,23.11272c-1.04537,0-1.8959.85053-1.8959,1.89602s.85053,1.89602,1.8959,1.89602c1.04549,0,1.89602-.85053,1.89602-1.89602s-.85053-1.89602-1.89602-1.89602ZM154.37941,14.72091c.01756,2.20217,1.85193,3.99397,4.08912,3.99397h17.44571c2.23719,0,4.07156-1.7918,4.08901-3.9942l.00023-.04839c0-2.90103-2.0748-5.35213-4.93349-5.82788-.09771-.01628-.18076-.08003-.22194-.17006-1.36758-2.99106-4.37341-4.92384-7.65759-4.92384-1.42027,0-2.78756.36269-3.99333,1.01466-.09044.04891-.17803.10248-.26661.15459-.08451.04979-.17006.09771-.25271.15029-1.34809.85798-2.4543,2.09603-3.14297,3.6043-.04118.09003-.12435.15378-.22206.17006-2.34688.3906-4.16287,2.11342-4.73883,4.32269-.02559.09812-.04682.19786-.06741.29784-.02036.09847-.03792.19763-.05327.29772-.04566.29731-.07398.60021-.07398.90962l.00012.04862ZM140.13146,13.1671h13.83176c.5777-2.45465,2.53526-4.39342,5.09634-4.88243.7277-1.52281,1.85763-2.77779,3.22457-3.66676-1.58481-1.69234-3.82868-2.70828-6.26821-2.70828-3.74528,0-7.03063,2.39294-8.17522,5.95467l-.09061.28196-.28254-.0891c-.54438-.17192-1.1147-.25916-1.6949-.25916-3.02165,0-5.49671,2.3841-5.64118,5.36911ZM4.3876,81.66786c0-1.04549-.85053-1.89602-1.89602-1.89602s-1.89602.85053-1.89602,1.89602.85053,1.89602,1.89602,1.89602,1.89602-.85053,1.89602-1.89602ZM21.77282,139.93034c2.61174-.97616,4.36643-3.50566,4.36643-6.29409,0-3.70433-3.01362-6.71796-6.71796-6.71796s-6.71808,3.01362-6.71808,6.71796c0,2.78843,1.75469,5.31793,4.36643,6.29409l.19356.07235v15.96309l1.86031,1.90538v-17.51021h.59556v17.43989l1.86019-1.83833v-2.23777l-1.03839-.54764v-7.07646l1.03839-.5474v-5.55057l.19356-.07235ZM185.35782,132.40117H63.78246c.00105.16308.00686.32477.01245.48273.0064.17471.01245.34617.01245.5146,0,3.09086,1.15355,6.39343,4.39132,6.39343h112.75165c2.03188,0,4.4047-1.73806,4.4047-6.63677l.00151-.30383c.00116-.14563.00233-.29569.00128-.45016ZM106.65019,157.3949c0,1.04549.85053,1.89602,1.89602,1.89602,1.04537,0,1.8959-.85053,1.8959-1.89602,0-1.04525-.85053-1.89579-1.8959-1.89579-1.04549,0-1.89602.85053-1.89602,1.89579ZM177.10234,130.7664l-.00058-69.48878c0-.6258-.50913-1.13482-1.13482-1.13482h-25.33245c-.09998,1.85031-.23648,3.61785-.41003,5.31211h19.06826c.95417,0,1.7305.77632,1.7305,1.73038v57.69205c0,.95429-.77632,1.73061-1.7305,1.73061h-89.86634c-.95417,0-1.73038-.77632-1.73038-1.73061v-57.69205c0-.95406.7762-1.73038,1.73038-1.73038h19.11839c-.18541-1.70142-.33157-3.47059-.43957-5.31211h-25.35281c-.69466.03606-1.07108.41177-1.13505,1.14762v69.49483c0,.45057.26597.83727.64732,1.02036h104.26946c.34791-.13743.52961-.42108.56822-1.03921ZM98.66876,59.54759c.00535.09893.01018.19891.01576.29743.00564.09957.01146.19862.01733.29778.10864,1.84257.25579,3.61151.44231,5.31211.01093.0998.02257.19844.03385.29778.01117.09934.02228.19891.03379.29778.75509,6.49718,2.09644,11.99122,4.07499,16.79571,3.75447,9.11672,9.97493,16.11059,19.01673,21.38129l2.06748,1.20554,2.06247-1.21392c9.18825-5.4075,15.20178-12.02263,18.92472-20.8183,2.08562-4.92674,3.45797-10.52675,4.20463-17.35033.01093-.09957.02257-.19769.03321-.29778.01041-.09841.01983-.19891.03001-.29778.17448-1.69333.3118-3.46082.4123-5.31211.00535-.09864.01-.19873.01518-.29778.00512-.09905.01024-.19815.01518-.29766.12144-2.44837.18181-5.03841.18181-7.79334v-4.08563h-11.71066c-.62732,0-1.2694-.27754-1.80797-.78121-1.35176-1.2644-3.30954-2.20869-5.81915-2.80611-1.96779-.46854-4.24476-.71607-6.58477-.71607s-4.61698.24753-6.58466.71607c-2.50961.59742-4.46751,1.54171-5.81939,2.80634-.53821.50367-1.1803.78097-1.80773.78097h-11.64715v4.08563c0,2.73777.06665,5.32991.19972,7.79357ZM145.90676,83.63298c-3.77541,8.9192-9.86721,15.62367-19.17132,21.09933l-2.36305,1.39072-2.36875-1.38095c-9.15906-5.3391-15.46152-12.42696-19.26752-21.6693-2.00641-4.87202-3.36346-10.43945-4.12355-17.0223h-19.18621c-.62569,0-1.13482.50902-1.13482,1.13482v57.69205c0,.6258.50913,1.13505,1.13482,1.13505h89.86634c.6258,0,1.13494-.50925,1.13494-1.13505v-57.69205c0-.6258-.50913-1.13482-1.13494-1.13482h-19.13061c-.7516,6.9128-2.14029,12.58602-4.25534,17.5825ZM61.8434,76.08682c0,1.04549.85053,1.89602,1.8959,1.89602,1.04549,0,1.89602-.85053,1.89602-1.89602s-.85053-1.89602-1.89602-1.89602c-1.04537,0-1.8959.85053-1.8959,1.89602ZM47.18682,69.62174v-27.49717H10.40217v27.49717h36.78465ZM52.11252,84.53655h-23.92568v30.05599h5.41796v-23.75097c-.0057-.71351-.01146-1.41056-.01722-2.08399l-.00256-.30034h18.52749v-3.92069ZM58.12604,92.68734h-3.51031v-3.54242h-20.41537v1.73579c.01913,2.44866.05025,6.67405.072,10.87449.05787,11.14022.01989,12.88788-.072,13.24143v4.20405h23.92568v-26.51334ZM55.21129,92.09178h2.87683l.02675-2.94686v-.00395h-2.90359v2.95081ZM71.02177,99.82615v-35.36298h-6.98468v9.15161c1.23375.14784,2.1938,1.19903,2.1938,2.47204,0,1.37397-1.11772,2.49158-2.49158,2.49158-1.37374,0-2.49146-1.1176-2.49146-2.49158,0-1.27301.96005-2.32419,2.19368-2.47204v-9.15161h-15.65915v5.75413h-29.19836l-.05165,29.60443,9.0589.00093v-15.88167h25.1168v4.60838h1.90765v-.00395h4.10006v.00395h.00582v11.27585l12.30017.00093ZM70.6143,158.71234h21.45806c.24695,0,.44783-.201.44783-.44783v-3.55265c0-.24683-.20089-.44783-.44783-.44783h-21.45806c-.24695,0-.44783.201-.44783.44783v3.55265c0,.24683.20089.44783.44783.44783ZM70.6143,165.32096h21.45806c.24695,0,.44783-.201.44783-.44783v-3.55265c0-.24683-.20089-.44783-.44783-.44783h-21.45806c-.24695,0-.44783.201-.44783.44783v3.55265c0,.24683.20089.44783.44783.44783ZM92.52019,167.88024c0-.24683-.20089-.44783-.44783-.44783h-21.45806c-.24695,0-.44783.201-.44783.44783v3.55265c0,.24683.20089.44783.44783.44783h21.45806c.24695,0,.44783-.201.44783-.44783v-3.55265ZM117.51706,164.47089h3.55033l.23473-1.65128c.20054-1.41794,1.43248-2.48716,2.86578-2.48716h2.93499v-19.94497h-18.2589v14.53561c1.23363.14784,2.19368,1.19903,2.19368,2.47181,0,1.37397-1.11772,2.49158-2.49146,2.49158-1.37386,0-2.49158-1.1176-2.49158-2.49158,0-1.27278.96005-2.32396,2.1938-2.47181v-14.53561h-26.57929l-.02803,13.28098h10.43125c.57532,0,1.04339.46807,1.04339,1.04339v3.55265c0,.57532-.46807,1.04339-1.04339,1.04339h-10.44311l-.00209.96918h10.44521c.57532,0,1.04339.46807,1.04339,1.04339v3.55265c0,.57532-.46807,1.04339-1.04339,1.04339h-10.45707l-.00198.92033h10.45905c.57532,0,1.04339.46807,1.04339,1.04339v1.67897h22.49959v-3.18648c0-1.04874.85309-1.90184,1.90172-1.90184ZM131.15642,164.35224l-.1668-1.17716c-.02536-.17937-.17518-.30941-.35606-.30941h-6.46566c-.17925,0-.33326.13307-.35827.30941l-.16669,1.17716h7.51347ZM133.11561,164.35224l-.206-1.44888c-.15913-1.12621-1.13761-1.97535-2.27604-1.97535h-6.46566c-1.13843,0-2.11691.84914-2.27604,1.97512l-.206,1.44912h1.3556l.17844-1.26068c.06654-.46831.47412-.82145.94801-.82145h6.46566c.47273,0,.87926.35315.9458.82122l.17855,1.26091h1.35769ZM138.59057,166.37273c0-.72025-.58602-1.30628-1.30628-1.30628h-19.76723c-.72025,0-1.30616.58602-1.30616,1.30628v15.05719c0,.72025.58591,1.30604,1.30616,1.30604h19.76735c.72025,0,1.30616-.58579,1.30616-1.30604v-15.05719ZM177.59577,156.05698h-21.53064v8.06123c0,.60045.48855,1.08899,1.08899,1.08899h19.35266c.60045,0,1.08899-.48855,1.08899-1.08899v-8.06123ZM156.06512,153.76152v1.6999h21.53064v-1.6999h-21.53064ZM177.59577,151.87643c0-.59951-.48855-1.08736-1.08899-1.08736h-19.35266c-.60045,0-1.08899.48785-1.08899,1.08736v1.28953h21.53064v-1.28953ZM166.53267,140.38748h-38.83421v19.94497h2.93511c1.4333,0,2.66525,1.06922,2.86578,2.48739l.23473,1.65105h3.55021c1.04863,0,1.90184.85309,1.90184,1.90184v8.02144h27.34654v-8.59141h-9.37855c-.92882,0-1.68455-.75562-1.68455-1.68455v-11.36519h-11.81814c-.14784,1.23358-1.19915,2.19357-2.47204,2.19357-1.37386,0-2.49158-1.1176-2.49158-2.49135,0-1.37397,1.11772-2.49158,2.49158-2.49158,1.27289,0,2.32419.95999,2.47204,2.1938h11.81814v-.28103c0-.928.75573-1.68292,1.68455-1.68292h9.37855v-9.80603ZM141.17939,150.55922c-1.04549,0-1.89602.85053-1.89602,1.89602,0,1.04525.85053,1.89579,1.89602,1.89579s1.89602-.85053,1.89602-1.89579c0-1.04549-.85053-1.89602-1.89602-1.89602ZM189.17324,112.50761c0-1.04549-.85053-1.89602-1.89602-1.89602s-1.89602.85053-1.89602,1.89602.85053,1.89602,1.89602,1.89602,1.89602-.85053,1.89602-1.89602ZM59.32646,173.08441c0,1.37397-1.11772,2.49158-2.49158,2.49158-1.27289,0-2.32419-.95999-2.47204-2.1938H20.58019v-11.13976h.59556v10.5442h33.1871c.14784-1.23381,1.19915-2.1938,2.47204-2.1938,1.37386,0,2.49158,1.1176,2.49158,2.49158ZM58.7309,173.08441c0-1.04549-.85053-1.89602-1.89602-1.89602s-1.89602.85053-1.89602,1.89602.85053,1.89602,1.89602,1.89602,1.89602-.85053,1.89602-1.89602ZM224.36831,178.60287h4.45571v-4.45565h-4.45571v4.45565ZM229.88489,173.08632h2.98742v-2.98745h-2.98742v2.98745Z"/>
</svg>